<?xml version="1.0" encoding="utf-8"?>
<!-- Generator: Adobe Illustrator 17.0.0, SVG Export Plug-In . SVG Version: 6.00 Build 0)  -->
<!DOCTYPE svg PUBLIC "-//W3C//DTD SVG 1.1//EN" "http://www.w3.org/Graphics/SVG/1.1/DTD/svg11.dtd">
<svg version="1.1" id="Layer_1" xmlns="http://www.w3.org/2000/svg" xmlns:xlink="http://www.w3.org/1999/xlink" x="0px" y="0px"
	 width="39.359px" height="20.17px" viewBox="-247.737 465.767 39.359 20.17"
	 enable-background="new -247.737 465.767 39.359 20.17" xml:space="preserve">
<path fill="#333333" d="M-247.737,466.767l7.553,18.865c0.074,0.181,0.255,0.305,0.453,0.305s0.379-0.123,0.453-0.305l7.252-18.059
	l7.268,18.059c0.074,0.181,0.255,0.305,0.453,0.305s0.379-0.123,0.453-0.305l7.252-18.059l7.029,17.392h-11.006l-0.403,0.971h12.124
	c0.156,0,0.313-0.082,0.403-0.214c0.082-0.123,0.099-0.296,0.041-0.444l-7.746-19.17c-0.074-0.181-0.255-0.305-0.453-0.305
	s-0.379,0.123-0.453,0.305l-7.243,18.051l-7.268-18.059c-0.074-0.181-0.255-0.305-0.453-0.305s-0.379,0.123-0.453,0.305
	l-7.252,18.059l-7.408-18.392h-0.595L-247.737,466.767z"/>
</svg>
