<?xml version="1.0" encoding="utf-8"?>
<!-- Generator: Adobe Illustrator 18.1.1, SVG Export Plug-In . SVG Version: 6.00 Build 0)  -->
<svg version="1.1" id="Layer_1" xmlns="http://www.w3.org/2000/svg" xmlns:xlink="http://www.w3.org/1999/xlink" x="0px" y="0px"
	 viewBox="69.3 378.1 478.8 33.9" enable-background="new 69.3 378.1 478.8 33.9" xml:space="preserve">
<g>
	<path fill="#333333" d="M103.8,412h-1l-10-28.5C91.7,387,82.3,412,82.3,412h-1.1l-12-33.2h3.5l9.2,25.7l9.3-25.7h3
		c0,0,8.3,22.9,9.1,25.7l9.3-25.7h3.2L103.8,412z"/>
	<path fill="#333333" d="M136.8,412c-9,0-17.1-6.7-17.1-16.9c0-10.1,8.1-16.8,17.1-16.8c9,0,17.1,6.7,17.1,16.8
		C153.9,405.3,145.8,412,136.8,412z M136.8,381.2c-7.1,0-13.6,5.4-13.6,13.9c0,8.4,6.5,13.9,13.6,13.9c7.1,0,13.6-5.6,13.6-13.9
		C150.4,386.7,143.9,381.2,136.8,381.2z"/>
	<path fill="#333333" d="M161.7,411.4v-32.6h3.4v29.7h15.2v3H161.7z"/>
	<path fill="#333333" d="M193.1,381.8v11.8H205v3h-11.9v14.9h-3.4v-32.6H207v3H193.1z"/>
	<path fill="#333333" d="M220.2,381.8v11.8h11.9v3h-11.9v14.9h-3.4v-32.6h17.4v3H220.2z"/>
	<polygon fill="#333333" points="267.1,378.1 266.1,378.1 252.6,411.4 256.4,411.4 266.6,385.2 275.6,408.1 262.4,408.1 
		261.1,411.4 281.1,411.4 	"/>
	<path fill="#333333" d="M309.2,411.4l-10.9-14.9h-5.7v14.9h-3.4v-32.6h9.3c5,0,9.6,3.3,9.6,8.8c0,4.3-2.8,7.3-6.4,8.3l11.5,15.5
		L309.2,411.4L309.2,411.4z M298,381.8h-5.3v11.8h5.6c3.4,0,6.5-2.2,6.5-5.9C304.7,384,301.6,381.8,298,381.8z"/>
	<path fill="#333333" d="M343.2,383.5c-1.9-1.2-5.1-2.3-8.6-2.3c-7.4,0-14.2,5.2-14.2,13.9c0,8.6,6.7,13.9,14.2,13.9
		c3.8,0,6.9-0.8,9.2-2.2l-0.8,3.5c-2.1,1.1-4.7,1.7-8.7,1.7c-8.7,0-17.3-6.4-17.3-16.9c0-10.6,8.6-16.9,17.3-16.9
		c4.2,0,7.4,0.9,9.6,2.2L343.2,383.5z"/>
	<path fill="#333333" d="M376.4,411.4v-14.9h-18.7v14.9h-3.4v-32.6h3.4v14.8h18.7v-14.8h3.4v32.6H376.4z"/>
	<path fill="#333333" d="M391.5,411.4v-32.6h3.4v32.6H391.5z"/>
	<path fill="#333333" d="M419.7,381.8v29.7h-3.4v-29.7h-11.2v-3H431v3H419.7z"/>
	<path fill="#333333" d="M440.2,411.4v-32.6h17v3h-13.6v11.8h11.2v3h-11.2v12H459v3L440.2,411.4L440.2,411.4z"/>
	<path fill="#333333" d="M490.6,383.5c-1.9-1.2-5.1-2.3-8.6-2.3c-7.4,0-14.2,5.2-14.2,13.9c0,8.6,6.7,13.9,14.2,13.9
		c3.8,0,6.9-0.8,9.2-2.2l-0.8,3.5c-2.1,1.1-4.7,1.7-8.7,1.7c-8.7,0-17.3-6.4-17.3-16.9c0-10.6,8.6-16.9,17.3-16.9
		c4.2,0,7.4,0.9,9.6,2.2L490.6,383.5z"/>
	<path fill="#333333" d="M511.5,381.8v29.7h-3.4v-29.7h-11.2v-3h25.9v3H511.5z"/>
	<path fill="#333333" d="M537.6,412c-3.8,0-6.8-1.2-8.6-2.5l-1-4.1c2.8,2.2,6,3.5,9.8,3.5c4,0,6.9-2.4,6.9-6c0-3.4-2.1-5.4-6.6-7
		c-5.8-2.1-8.6-5.2-8.6-9.5c0-4.1,3.1-8.2,9.7-8.2c3,0,5.6,1,6.9,1.9l-0.7,2.9c-1.3-0.9-3.8-1.9-6.3-1.9c-4.1,0-6.3,2.7-6.3,5.2
		c0,2.6,1.9,4.6,6,6.2c5.8,2.2,9.4,5,9.4,10.2C548.2,408.4,544.1,412,537.6,412z"/>
	<rect x="91.2" y="378.8" fill="#333333" width="3" height="2.7"/>
</g>
</svg>
